<svg width="28" height="30" viewBox="0 0 28 30" fill="none" xmlns="http://www.w3.org/2000/svg">
<path fill-rule="evenodd" clip-rule="evenodd" d="M0.0356445 4.42404C0.0356445 2.00218 1.99574 0.0356445 4.41763 0.0356445H23.5822C26.0041 0.0356445 27.9642 2.00218 27.9642 4.42404V16.7817C27.9642 19.2036 26.0041 21.1701 23.5822 21.1701H14.4094L6.59862 28.8556C6.31137 29.1382 5.88252 29.2208 5.51084 29.0651C5.13915 28.9094 4.89725 28.5458 4.89725 28.1428V21.1701H4.41763C1.99574 21.1701 0.0356445 19.2036 0.0356445 16.7817V4.42404ZM4.41763 2.03564C3.10388 2.03564 2.03564 3.10318 2.03564 4.42404V16.7817C2.03564 18.1026 3.10388 19.1701 4.41763 19.1701H5.89725C6.44954 19.1701 6.89725 19.6178 6.89725 20.1701V25.7559L13.2986 19.4573C13.4856 19.2732 13.7375 19.1701 13.9999 19.1701H23.5822C24.896 19.1701 25.9642 18.1026 25.9642 16.7817V4.42404C25.9642 3.10318 24.896 2.03564 23.5822 2.03564H4.41763Z" fill="#2E3A40"/>
<path fill-rule="evenodd" clip-rule="evenodd" d="M6.51807 7.41382C6.51807 6.86153 6.96578 6.41382 7.51807 6.41382H20.4824C21.0346 6.41382 21.4824 6.86153 21.4824 7.41382C21.4824 7.9661 21.0346 8.41382 20.4824 8.41382H7.51807C6.96578 8.41382 6.51807 7.9661 6.51807 7.41382ZM6.51807 13.792C6.51807 13.2397 6.96578 12.792 7.51807 12.792H15.6207C16.173 12.792 16.6207 13.2397 16.6207 13.792C16.6207 14.3443 16.173 14.792 15.6207 14.792H7.51807C6.96578 14.792 6.51807 14.3443 6.51807 13.792Z" fill="#2E3A40"/>
</svg>
