<svg width="16" height="20" viewBox="0 0 16 20" fill="none" xmlns="http://www.w3.org/2000/svg">
<path fill-rule="evenodd" clip-rule="evenodd" d="M3.5 7.30005C3.5 6.74776 3.94772 6.30005 4.5 6.30005H6.25C6.80228 6.30005 7.25 6.74776 7.25 7.30005C7.25 7.85233 6.80228 8.30005 6.25 8.30005H4.5C3.94772 8.30005 3.5 7.85233 3.5 7.30005ZM3.5 10.9C3.5 10.3478 3.94772 9.90005 4.5 9.90005H11.5C12.0523 9.90005 12.5 10.3478 12.5 10.9C12.5 11.4523 12.0523 11.9 11.5 11.9H4.5C3.94772 11.9 3.5 11.4523 3.5 10.9ZM3.5 14.5C3.5 13.9478 3.94772 13.5 4.5 13.5H11.5C12.0523 13.5 12.5 13.9478 12.5 14.5C12.5 15.0523 12.0523 15.5 11.5 15.5H4.5C3.94772 15.5 3.5 15.0523 3.5 14.5Z" fill="#20B6C9" fill-opacity="0.6"/>
<path fill-rule="evenodd" clip-rule="evenodd" d="M0.795568 0.830129C1.30898 0.302046 2.01142 0 2.75 0H9.75C10.0201 0 10.2787 0.109261 10.467 0.302922L15.717 5.70292C15.8985 5.88958 16 6.13966 16 6.4V17.2C16 17.9337 15.7169 18.6427 15.2044 19.1699C14.691 19.698 13.9886 20 13.25 20H2.75C2.01142 20 1.30898 19.698 0.795568 19.1699C0.283085 18.6427 0 17.9337 0 17.2V2.8C0 2.06634 0.283084 1.35726 0.795568 0.830129ZM2.75 2C2.56032 2 2.37252 2.07724 2.22956 2.22429C2.08566 2.37229 2 2.57888 2 2.8V17.2C2 17.4211 2.08566 17.6277 2.22956 17.7757C2.37252 17.9228 2.56032 18 2.75 18H13.25C13.4397 18 13.6275 17.9228 13.7704 17.7757C13.9143 17.6277 14 17.4211 14 17.2V7.4H9.75C9.19771 7.4 8.75 6.95228 8.75 6.4V2H2.75ZM10.75 3.46313L12.6331 5.4H10.75V3.46313Z" fill="#20B6C9"/>
</svg>
