<svg width="19" height="22" viewBox="0 0 19 22" fill="none" xmlns="http://www.w3.org/2000/svg">
<path d="M18 9.18182C18 15.5455 9.5 21 9.5 21C9.5 21 1 15.5455 1 9.18182C1 7.01187 1.89553 4.93079 3.48959 3.3964C5.08365 1.86201 7.24566 1 9.5 1C11.7543 1 13.9163 1.86201 15.5104 3.3964C17.1045 4.93079 18 7.01187 18 9.18182Z" stroke="white" stroke-width="2" stroke-linecap="round" stroke-linejoin="round"/>
<path d="M9.49996 12.2924C11.0648 12.2924 12.3333 10.9856 12.3333 9.37363C12.3333 7.76165 11.0648 6.45488 9.49996 6.45488C7.93516 6.45488 6.66663 7.76165 6.66663 9.37363C6.66663 10.9856 7.93516 12.2924 9.49996 12.2924Z" stroke="white" stroke-width="2" stroke-linecap="round" stroke-linejoin="round"/>
</svg>
