<svg width="19" height="22" viewBox="0 0 19 22" fill="none" xmlns="http://www.w3.org/2000/svg">
<path fill-rule="evenodd" clip-rule="evenodd" d="M9.5 2C7.49883 2 5.58694 2.76556 4.18309 4.11686C2.78053 5.46691 2 7.28966 2 9.18182C2 11.9472 3.87416 14.6538 5.96271 16.7758C6.98408 17.8136 8.00914 18.6636 8.78022 19.2546C9.05845 19.4679 9.30251 19.6466 9.5 19.7873C9.69749 19.6466 9.94155 19.4679 10.2198 19.2546C10.9909 18.6636 12.0159 17.8136 13.0373 16.7758C15.1258 14.6538 17 11.9472 17 9.18182C17 7.28966 16.2195 5.46691 14.8169 4.11686C13.4131 2.76556 11.5012 2 9.5 2ZM9.5 21C8.95992 21.8416 8.95967 21.8415 8.95939 21.8413L8.95662 21.8395L8.95024 21.8354L8.9284 21.8212C8.90988 21.809 8.88352 21.7917 8.84984 21.7692C8.78249 21.7243 8.6858 21.659 8.56396 21.5743C8.32039 21.405 7.9757 21.1579 7.56353 20.842C6.74086 20.2114 5.64092 19.3001 4.53729 18.1787C2.37584 15.9826 0 12.7801 0 9.18182C5.96046e-08 6.73407 1.01053 4.39466 2.7961 2.67594C4.58037 0.958458 6.99249 0 9.5 0C12.0075 0 14.4196 0.958458 16.2039 2.67594C17.9895 4.39466 19 6.73407 19 9.18182C19 12.7801 16.6242 15.9826 14.4627 18.1787C13.3591 19.3001 12.2591 20.2114 11.4365 20.842C11.0243 21.1579 10.6796 21.405 10.436 21.5743C10.3142 21.659 10.2175 21.7243 10.1502 21.7692C10.1165 21.7917 10.0901 21.809 10.0716 21.8212L10.0498 21.8354L10.0434 21.8395L10.0413 21.8408C10.0411 21.841 10.0401 21.8416 9.5 21ZM9.5 21L10.0401 21.8416C9.71099 22.0528 9.28848 22.0525 8.95939 21.8413L9.5 21Z" fill="#20B6C9"/>
<path fill-rule="evenodd" clip-rule="evenodd" d="M9.49984 7.45459C8.51511 7.45459 7.6665 8.28544 7.6665 9.37334C7.6665 10.4612 8.5151 11.2921 9.49984 11.2921C10.4846 11.2921 11.3332 10.4612 11.3332 9.37334C11.3332 8.28544 10.4846 7.45459 9.49984 7.45459ZM5.6665 9.37334C5.6665 7.23728 7.35496 5.45459 9.49984 5.45459C11.6447 5.45459 13.3332 7.23728 13.3332 9.37334C13.3332 11.5094 11.6447 13.2921 9.49984 13.2921C7.35496 13.2921 5.6665 11.5094 5.6665 9.37334Z" fill="#20B6C9" fill-opacity="0.7"/>
</svg>
