<svg width="19" height="19" viewBox="0 0 19 19" fill="none" xmlns="http://www.w3.org/2000/svg">
<path fill-rule="evenodd" clip-rule="evenodd" d="M12.5858 1C13.3668 0.218954 14.6332 0.218952 15.4142 1L18 3.58579C18.781 4.36684 18.781 5.63317 18 6.41422L6 18.4142C5.62493 18.7893 5.11622 19 4.58579 19H1C0.447715 19 0 18.5523 0 18V14.4142C0 13.8838 0.210714 13.3751 0.585786 13L12.5858 1ZM11 5.41421L2 14.4142V17H4.58579L13.5858 8L11 5.41421ZM12.4142 4L15 6.58579L16.5858 5L14 2.41422L12.4142 4Z" fill="#2E3A40"/>
<path fill-rule="evenodd" clip-rule="evenodd" d="M9 18C9 17.4477 9.44772 17 10 17H17.5C18.0523 17 18.5 17.4477 18.5 18C18.5 18.5523 18.0523 19 17.5 19H10C9.44772 19 9 18.5523 9 18Z" fill="#2E3A40"/>
</svg>
