<svg width="20" height="20" viewBox="0 0 20 20" fill="none" xmlns="http://www.w3.org/2000/svg">
<path d="M18.9994 14.4767V17.1864C19.0036 18.2223 18.0722 19.0873 17.0264 18.9929C8 19 1 11.935 1.00706 2.96919C0.912875 1.92895 1.77358 1.00106 2.80811 1.00009H5.52325C5.96247 0.995773 6.38828 1.151 6.72131 1.43684C7.66813 2.24949 8.27713 5.00777 8.04281 6.10428C7.85987 6.96036 6.9969 7.55929 6.41019 8.14484C7.69858 10.4062 9.57465 12.2785 11.8405 13.5644C12.4272 12.9788 13.0273 12.1176 13.8851 11.935C14.9855 11.7008 17.7615 12.3106 18.5709 13.264C18.8579 13.6021 19.0104 14.0337 18.9994 14.4767Z" stroke="#20B6C9" stroke-width="2" stroke-linecap="round" stroke-linejoin="round"/>
<path d="M12.5 4.5C13.2372 4.64382 13.9689 4.96892 14.5 5.5C15.0311 6.03108 15.3562 6.76284 15.5 7.5M13 1C14.5315 1.17014 15.9097 1.91107 17 3C18.0903 4.08893 18.8279 5.46869 19 7" stroke="#20B6C9" stroke-opacity="0.6" stroke-width="2" stroke-linecap="round" stroke-linejoin="round"/>
</svg>
