<svg width="26" height="26" viewBox="0 0 26 26" fill="none" xmlns="http://www.w3.org/2000/svg">
<path d="M24.785 18.8624V22.4109C24.7905 23.7673 23.5708 24.9001 22.2013 24.7765C10.381 24.7858 1.21436 15.534 1.22361 3.79305C1.10026 2.43083 2.22737 1.21574 3.58212 1.21447H7.13766C7.71283 1.20882 8.27044 1.4121 8.70655 1.78641C9.94643 2.8506 10.7439 6.46263 10.4371 7.89853C10.1975 9.01959 9.06744 9.80391 8.29913 10.5707C9.9863 13.532 12.4431 15.9839 15.4102 17.6677C16.1785 16.9009 16.9644 15.7731 18.0877 15.534C19.5287 15.2273 23.1639 16.0259 24.2238 17.2744C24.5997 17.7171 24.7994 18.2823 24.785 18.8624Z" stroke="#2E3A40" stroke-width="2" stroke-linecap="round" stroke-linejoin="round"/>
<path d="M16.2739 5.79769C17.2393 5.98603 18.1975 6.41175 18.893 7.10721C19.5884 7.80267 20.0142 8.76093 20.2025 9.72626M16.9287 1.21436C18.9343 1.43716 20.739 2.40742 22.1668 3.8334C23.5946 5.25938 24.5605 7.06621 24.7858 9.0715" stroke="#2E3A40" stroke-width="2" stroke-linecap="round" stroke-linejoin="round"/>
</svg>
