<svg width="21" height="21" viewBox="0 0 21 21" fill="none" xmlns="http://www.w3.org/2000/svg">
<path d="M13.1389 4.69444C13.917 4.84626 14.6894 5.18942 15.25 5.75C15.8106 6.31058 16.1537 7.083 16.3056 7.86111M13.6667 1C15.2833 1.17959 16.738 1.96168 17.8889 3.11111C19.0398 4.26054 19.8184 5.71695 20 7.33333M19.9993 15.2254V18.0857C20.0038 19.1791 19.0206 20.0921 17.9167 19.9926C8.38887 20 1 12.5425 1.00746 3.07858C0.908035 1.98056 1.81655 1.00112 2.90855 1.00009H5.77453C6.23816 0.995538 6.68762 1.15939 7.03915 1.46111C8.03857 2.31891 8.6814 5.23043 8.43407 6.38785C8.24096 7.2915 7.33005 7.9237 6.71075 8.54178C8.07071 10.9288 10.051 12.9051 12.4427 14.2624C13.062 13.6443 13.6955 12.7352 14.6009 12.5425C15.7624 12.2953 18.6926 12.939 19.547 13.9454C19.85 14.3022 20.0109 14.7578 19.9993 15.2254Z" stroke="white" stroke-width="2" stroke-linecap="round" stroke-linejoin="round"/>
</svg>
