<svg width="277" height="58" viewBox="0 0 277 58" fill="none" xmlns="http://www.w3.org/2000/svg">
<circle cx="8" cy="29" r="8" fill="#20B6C9"/>
<path d="M57.1797 28.6406H51.8828V24.9141H56.1016C57.3359 24.9141 58.3359 24.7266 59.1016 24.3516C59.8672 23.9609 60.4297 23.4141 60.7891 22.7109C61.1484 22.0078 61.3281 21.1797 61.3281 20.2266C61.3281 19.4453 61.125 18.7266 60.7188 18.0703C60.3281 17.4141 59.7188 16.8906 58.8906 16.5C58.0625 16.0938 57.0078 15.8906 55.7266 15.8906C54.7578 15.8906 53.875 16.0625 53.0781 16.4062C52.2812 16.75 51.6484 17.2344 51.1797 17.8594C50.7109 18.4688 50.4766 19.2109 50.4766 20.0859H43.4688C43.4688 18.5859 43.7891 17.2422 44.4297 16.0547C45.0859 14.8516 45.9766 13.8359 47.1016 13.0078C48.2422 12.1641 49.5547 11.5234 51.0391 11.0859C52.5234 10.6484 54.0859 10.4297 55.7266 10.4297C57.6484 10.4297 59.3828 10.6406 60.9297 11.0625C62.4766 11.4687 63.8047 12.0781 64.9141 12.8906C66.0234 13.7031 66.875 14.7109 67.4688 15.9141C68.0625 17.1172 68.3594 18.5156 68.3594 20.1094C68.3594 21.2812 68.0938 22.3828 67.5625 23.4141C67.0312 24.4453 66.2734 25.3516 65.2891 26.1328C64.3047 26.9141 63.125 27.5312 61.75 27.9844C60.375 28.4219 58.8516 28.6406 57.1797 28.6406ZM51.8828 26.6016H57.1797C59.0391 26.6016 60.6875 26.7969 62.125 27.1875C63.5781 27.5781 64.8047 28.1484 65.8047 28.8984C66.8203 29.6484 67.5859 30.5781 68.1016 31.6875C68.6328 32.7812 68.8984 34.0391 68.8984 35.4609C68.8984 37.0547 68.5703 38.4688 67.9141 39.7031C67.2734 40.9375 66.3594 41.9844 65.1719 42.8438C64 43.7031 62.6094 44.3516 61 44.7891C59.4062 45.2266 57.6484 45.4453 55.7266 45.4453C54.1953 45.4453 52.6719 45.2578 51.1562 44.8828C49.6406 44.4922 48.2656 43.8984 47.0312 43.1016C45.7969 42.3047 44.8125 41.2812 44.0781 40.0312C43.3438 38.7812 42.9766 37.2812 42.9766 35.5312H50.0312C50.0312 36.3594 50.2734 37.1172 50.7578 37.8047C51.2422 38.4766 51.9141 39.0156 52.7734 39.4219C53.6328 39.8125 54.6172 40.0078 55.7266 40.0078C57.0234 40.0078 58.125 39.8047 59.0312 39.3984C59.9531 38.9922 60.6484 38.4375 61.1172 37.7344C61.6016 37.0156 61.8438 36.2266 61.8438 35.3672C61.8438 34.4453 61.7188 33.6641 61.4688 33.0234C61.2188 32.3828 60.8516 31.8594 60.3672 31.4531C59.8828 31.0312 59.2812 30.7266 58.5625 30.5391C57.8594 30.3516 57.0391 30.2578 56.1016 30.2578H51.8828V26.6016ZM96.8594 24.7734V30.2578H79.0469V24.7734H96.8594ZM81.1328 10.875V45H74.1016V10.875H81.1328ZM101.875 10.875V45H94.8672V10.875H101.875ZM114.766 33.9375L128.477 10.875H135.508V45H128.477V21.9375L114.766 45H107.734V10.875H114.766V33.9375ZM152.875 30.9375L139.867 10.875H148.609L156.25 24.7031H162.18L161.266 30.9375H152.875ZM156.203 29.8594L148.117 45H139.352L150.531 25.7812L156.203 29.8594ZM166.773 10.875V45H159.789V10.875H166.773ZM186.414 10.875L173.594 30.9375H165.25L164.336 24.7031H170.219L177.672 10.875H186.414ZM178.164 45L170.266 29.8594L175.961 25.7812L186.93 45H178.164ZM197.078 10.875V45H190.047V10.875H197.078ZM217.188 10.875L204.109 30.9141H195.508L194.617 24.6562H200.359L208.656 10.875H217.188ZM209.945 45L200.383 29.7422L205.258 24.7266L218.289 45H209.945ZM227.828 33.9375L241.539 10.875H248.57V45H241.539V21.9375L227.828 45H220.797V10.875H227.828V33.9375Z" fill="#2E3A40"/>
</svg>
