<svg width="42" height="27" viewBox="0 0 42 27" fill="none" xmlns="http://www.w3.org/2000/svg">
<path d="M40 12.9555C40 12.9555 34.3 25.999 21 25.999C7.7 25.999 2 12.9555 2 12.9555C2 12.9555 7.7 0.999023 21 0.999023C34.3 0.999023 40 12.9555 40 12.9555Z" fill="#FFD362"/>
<path class="qw" fill-rule="evenodd" clip-rule="evenodd" d="M3.11835 12.9758C3.13215 13.0033 3.14666 13.0319 3.16188 13.0618C3.33381 13.399 3.5965 13.8867 3.95339 14.4747C4.66826 15.6526 5.75489 17.2226 7.23874 18.7897C10.2061 21.9237 14.7108 24.999 21.0001 24.999C27.2894 24.999 31.7941 21.9237 34.7614 18.7897C36.2453 17.2226 37.3319 15.6526 38.0468 14.4747C38.4037 13.8867 38.6664 13.399 38.8383 13.0618C38.8535 13.0319 38.868 13.0033 38.8818 12.9758C38.8732 12.9602 38.8644 12.9442 38.8553 12.9278C38.6846 12.6209 38.4232 12.1762 38.0679 11.6394C37.3561 10.5644 36.2728 9.12931 34.792 7.69574C31.8344 4.83231 27.321 1.99902 21.0001 1.99902C14.6791 1.99902 10.1658 4.83231 7.20816 7.69574C5.72741 9.12931 4.64408 10.5644 3.93232 11.6394C3.57693 12.1762 3.3156 12.6209 3.14491 12.9278C3.1358 12.9442 3.12695 12.9602 3.11835 12.9758ZM40.0001 12.9555C40.9164 13.356 40.9162 13.3564 40.916 13.3569L40.9155 13.3581L40.914 13.3614L40.9095 13.3716L40.8941 13.4059C40.8809 13.4349 40.8621 13.4759 40.8375 13.5281C40.7883 13.6326 40.716 13.7821 40.6201 13.9702C40.4283 14.3463 40.1418 14.8776 39.7565 15.5124C38.987 16.7803 37.8174 18.4711 36.2137 20.1648C33.0061 23.5526 28.0108 26.999 21.0001 26.999C13.9894 26.999 8.99413 23.5526 5.78644 20.1648C4.18278 18.4711 3.01317 16.7803 2.24366 15.5124C1.85836 14.8776 1.57184 14.3463 1.38009 13.9702C1.28418 13.7821 1.21187 13.6326 1.16267 13.5281C1.13807 13.4759 1.11923 13.4349 1.1061 13.4059L1.09068 13.3716L1.08616 13.3614L1.0847 13.3581L1.08416 13.3569C1.08395 13.3564 1.08376 13.356 2.00009 12.9555C1.09742 12.5252 1.09763 12.5248 1.09786 12.5243L1.09844 12.5231L1.1 12.5198L1.10471 12.5101L1.12052 12.4779C1.1339 12.4508 1.15301 12.4127 1.17789 12.3643C1.22764 12.2674 1.30054 12.1293 1.39706 11.9557C1.59004 11.6088 1.87793 11.1194 2.26473 10.5353C3.03735 9.36838 4.21026 7.81439 5.81702 6.25882C9.03435 3.144 14.021 -0.000976562 21.0001 -0.000976562C27.9791 -0.000976562 32.9658 3.144 36.1832 6.25882C37.7899 7.81439 38.9628 9.36838 39.7354 10.5353C40.1222 11.1194 40.4101 11.6088 40.6031 11.9557C40.6996 12.1293 40.7725 12.2674 40.8223 12.3643C40.8472 12.4127 40.8663 12.4508 40.8797 12.4779L40.8955 12.5101L40.9002 12.5198L40.9017 12.5231L40.9023 12.5243C40.9025 12.5248 40.9028 12.5252 40.0001 12.9555ZM2.00009 12.9555L1.09742 12.5252L0.900879 12.9375L1.08376 13.356L2.00009 12.9555ZM40.0001 12.9555L40.9028 12.5252L41.0993 12.9375L40.9164 13.356L40.0001 12.9555ZM2.90226 13.3869C2.90217 13.3871 2.90218 13.3871 2.90227 13.3869L2.90226 13.3869Z"/>
<path d="M26.9714 13.4989C26.9714 16.8006 24.2979 19.4772 21 19.4772C17.7021 19.4772 15.0286 16.8006 15.0286 13.4989C15.0286 10.1972 17.7021 7.52063 21 7.52063C24.2979 7.52063 26.9714 10.1972 26.9714 13.4989Z" fill="#FFD362"/>
<path fill-rule="evenodd" clip-rule="evenodd" d="M21 8.52063C18.2554 8.52063 16.0286 10.7484 16.0286 13.4989C16.0286 16.2494 18.2554 18.4772 21 18.4772C23.7446 18.4772 25.9714 16.2494 25.9714 13.4989C25.9714 10.7484 23.7446 8.52063 21 8.52063ZM14.0286 13.4989C14.0286 9.64598 17.1487 6.52063 21 6.52063C24.8513 6.52063 27.9714 9.64598 27.9714 13.4989C27.9714 17.3518 24.8513 20.4772 21 20.4772C17.1487 20.4772 14.0286 17.3518 14.0286 13.4989Z" fill="#20B6C9"/>
</svg>
