<svg width="350" height="120" viewBox="0 0 350 120" fill="none" xmlns="http://www.w3.org/2000/svg">
<g clip-path="url(#clip0_103_4594)">
<path d="M71.4735 60.2369C67.1349 67.3287 60.6352 72.8293 52.9373 75.9237C45.2395 79.0181 36.7531 79.5417 28.7355 77.4169C20.7179 75.2922 13.5956 70.632 8.42397 64.127C3.2523 57.622 0.306344 49.6182 0.0226058 41.3015C-0.261133 32.9847 2.13243 24.7974 6.84866 17.9527C11.5649 11.108 18.3529 5.96996 26.2069 3.29989C34.0609 0.629822 42.5631 0.569753 50.4538 3.12859C58.3445 5.68743 65.2039 10.729 70.0157 17.5064L54.8468 30.5361C52.7916 26.9682 49.6283 24.1743 45.8407 22.5816C42.0532 20.9889 37.85 20.6852 33.8742 21.717C29.8983 22.7487 26.3688 25.0591 23.8254 28.2947C21.2821 31.5303 19.865 35.5129 19.791 39.6333C19.7169 43.7537 20.99 47.785 23.4155 51.1105C25.8409 54.436 29.2852 56.8725 33.2214 58.0474C37.1576 59.2224 41.3689 59.0709 45.2112 57.6163C49.0535 56.1617 52.3152 53.484 54.4972 49.9928L71.4735 60.2369Z" fill="#20B6C9"/>
<path d="M131.754 60.9105C131.756 69.1021 129.168 77.083 124.362 83.7043C119.556 90.3256 112.78 95.2458 105.01 97.7565C97.2401 100.267 88.8766 100.239 81.1236 97.6758C73.3706 95.1126 66.6281 90.1467 61.8667 83.493L76.8993 70.1933C78.9276 73.7735 82.0717 76.5859 85.8481 78.1982C89.6244 79.8105 93.824 80.1333 97.801 79.1171C101.778 78.1008 105.312 75.8018 107.86 72.5734C110.408 69.345 111.829 65.3661 111.904 61.2484C111.979 57.1308 110.705 53.1023 108.276 49.7826C105.847 46.4628 102.399 44.0355 98.462 42.8739C94.5247 41.7123 90.3162 41.8807 86.4836 43.3533C82.6509 44.8258 79.4064 47.5209 77.2489 51.0242L60.1187 40.9977C64.4594 33.7436 71.0495 28.1171 78.8801 24.9795C86.7107 21.842 95.3502 21.3663 103.476 23.6254C111.601 25.8844 118.765 30.7537 123.871 37.4876C128.976 44.2216 131.742 52.4491 131.744 60.9105H131.754Z" fill="#20B6C9"/>
<path d="M168.304 79.441V82.388C168.304 87.5895 165.857 90.1915 160.963 90.1938H157.016C152.122 90.1938 149.674 87.5919 149.674 82.388V52.0381C149.674 46.8342 152.122 44.2323 157.016 44.2323H160.97C165.864 44.2323 168.311 46.8342 168.311 52.0381V57.2198H162.2V52.4872C162.2 50.6933 161.286 49.7975 159.456 49.7999H158.246C156.628 49.7999 155.824 50.6945 155.824 52.4872V81.9213C155.824 83.7141 156.628 84.6087 158.246 84.6087H159.753C161.368 84.6087 162.177 83.7129 162.179 81.9213V79.441H168.304Z" fill="#20B6C9"/>
<path d="M187.305 66.5623C190.661 67.4978 192.34 69.2519 192.342 71.8246V83.3422C192.342 87.9053 190.026 90.188 185.392 90.1903H173.083V44.2323H183.543C188.983 44.2323 191.704 47.005 191.706 52.5503V61.3806C191.706 64.0258 190.239 65.6466 187.305 66.243V66.5623ZM179.205 63.6188H182.075C184.405 63.6188 185.571 62.5102 185.571 60.293V53.1292C185.571 50.912 184.657 49.8034 182.83 49.8034H179.194L179.205 63.6188ZM179.205 84.6087H183.798C185.413 84.6087 186.221 83.9468 186.221 82.623V72.4491C186.221 70.274 185.009 69.1864 182.585 69.1864H179.205V84.6087Z" fill="#20B6C9"/>
<path d="M197.443 90.1762V44.2182H203.564V90.1762H197.443Z" fill="#20B6C9"/>
<path d="M219.058 49.7999V90.1762H212.937V49.7999H207.071V44.2323H224.925V49.7999H219.058Z" fill="#20B6C9"/>
<path d="M235.507 90.1762C230.577 90.1762 228.113 87.5743 228.113 82.3704V52.1013C228.113 46.8553 230.56 44.2323 235.454 44.2323H241.321C246.215 44.2323 248.662 46.8553 248.662 52.1013V82.3704C248.662 87.572 246.196 90.1739 241.265 90.1762H235.507ZM236.975 84.6087H240.1C241.716 84.6087 242.523 83.7129 242.523 81.9213V52.4872C242.523 50.6933 241.608 49.7975 239.779 49.7999H236.912C235.125 49.7999 234.232 50.6956 234.234 52.4872V81.9213C234.234 83.7129 235.148 84.6087 236.975 84.6087Z" fill="#20B6C9"/>
<path d="M260.185 90.1762H254.063V44.2182H269.239V49.7858H260.185V90.1762Z" fill="#20B6C9"/>
<path d="M293.151 44.2323V90.1903H287.03V49.7999H279.503V82.4265C279.503 87.5883 277.145 90.1692 272.427 90.1692H270.515V84.6087H270.641C272.471 84.6087 273.384 83.5001 273.382 81.2829V44.2323H293.151Z" fill="#20B6C9"/>
<path d="M318.529 90.1762H312.407V71.6176H308.708L304.692 90.1762H298.892L303.164 71.0423C300.742 69.9758 299.53 67.4381 299.528 63.4294V52.1013C299.528 46.8553 301.867 44.2323 306.544 44.2323H318.532L318.529 90.1762ZM312.407 49.7999H308.39C306.561 49.7999 305.646 50.9085 305.646 53.1257V63.0435C305.646 65.2654 306.561 66.3751 308.39 66.3728H312.407V49.7999Z" fill="#20B6C9"/>
<path d="M326.244 90.1762V99.3257H320.123V85.0542H322.353C322.994 83.3515 323.557 81.7144 324.042 80.1427C324.531 78.5675 324.968 76.9432 325.349 75.2802C325.73 73.6173 326.048 71.8141 326.338 69.874C326.629 67.934 326.838 65.7343 327.01 63.282C327.181 60.8298 327.303 58.0583 327.391 54.964C327.478 51.8697 327.541 48.2983 327.583 44.2463H345.947V85.0542H348.817V99.3257H342.759V90.1762H326.244ZM339.826 49.7999H333.065C333.065 53.2145 333.023 56.2959 332.939 59.0441C332.855 61.7922 332.728 64.2246 332.558 66.3412C332.386 68.4462 332.173 70.3196 331.918 71.9544C331.663 73.5893 331.376 75.0873 331.058 76.5151C330.74 77.943 330.359 79.3217 329.911 80.6724C329.464 82.0231 328.985 83.5106 328.474 85.0858H339.826V49.7999Z" fill="#20B6C9"/>
<path d="M147.108 103.974H148.622V113.72H152.67V113.66H152.887V103.974H154.411V114.874H154.188V117.551H152.67V114.874H147.108V103.974Z" fill="#20B6C9"/>
<path d="M158.981 115.046C158.526 115.066 158.074 114.975 157.662 114.782C157.25 114.59 156.89 114.3 156.614 113.938C156.014 113.099 155.713 112.082 155.761 111.05V110.699C155.717 109.656 156.015 108.627 156.61 107.77C156.86 107.411 157.193 107.119 157.581 106.919C157.97 106.72 158.401 106.619 158.837 106.626C159.24 106.604 159.643 106.682 160.009 106.853C160.375 107.024 160.693 107.284 160.935 107.609C161.45 108.388 161.702 109.313 161.655 110.247V111.103H157.275C157.245 111.803 157.399 112.499 157.722 113.12C157.854 113.365 158.051 113.567 158.293 113.704C158.534 113.84 158.809 113.905 159.085 113.892C159.463 113.9 159.839 113.832 160.19 113.692C160.512 113.553 160.805 113.357 161.057 113.113L161.55 114.057C161.25 114.358 160.894 114.596 160.501 114.759C160.02 114.959 159.502 115.057 158.981 115.046ZM158.837 107.798C158.624 107.796 158.414 107.852 158.229 107.959C158.045 108.067 157.893 108.222 157.788 108.409C157.504 108.901 157.337 109.454 157.303 110.022H160.166V109.85C160.188 109.336 160.076 108.824 159.841 108.366C159.743 108.187 159.598 108.038 159.42 107.937C159.243 107.837 159.041 107.789 158.837 107.798Z" fill="#20B6C9"/>
<path d="M169.269 114.874H167.745V111.412H164.997V114.874H163.473V106.777H164.997V110.286H167.745V106.777H169.269V114.874Z" fill="#20B6C9"/>
<path d="M177.086 107.938H174.786V114.874H173.262V107.938H171.014V106.777H177.072L177.086 107.938Z" fill="#20B6C9"/>
<path d="M184.896 111.089C184.95 112.096 184.707 113.097 184.197 113.966C183.875 114.451 183.39 114.803 182.83 114.959C182.27 115.114 181.673 115.062 181.148 114.811C180.835 114.645 180.567 114.404 180.369 114.109V118H178.845V106.774H180.135L180.278 107.749C180.475 107.409 180.752 107.122 181.085 106.914C181.422 106.715 181.807 106.614 182.197 106.623C182.606 106.616 183.009 106.723 183.362 106.93C183.715 107.138 184.004 107.44 184.197 107.802C184.71 108.76 184.951 109.841 184.896 110.928V111.089ZM183.372 110.931C183.4 110.162 183.264 109.395 182.973 108.682C182.887 108.431 182.725 108.213 182.511 108.057C182.296 107.901 182.039 107.816 181.774 107.812C181.464 107.803 181.16 107.903 180.914 108.093C180.669 108.297 180.477 108.559 180.355 108.854V112.938C180.475 113.218 180.669 113.46 180.914 113.639C181.17 113.811 181.473 113.898 181.781 113.888C182.033 113.893 182.281 113.823 182.494 113.687C182.706 113.551 182.874 113.355 182.977 113.124C183.266 112.485 183.402 111.787 183.372 111.085V110.931Z" fill="#20B6C9"/>
<path d="M193.447 113.892C193.626 113.895 193.803 113.857 193.965 113.782C194.127 113.707 194.27 113.595 194.384 113.457C194.651 113.124 194.785 112.704 194.762 112.278H196.128V112.324C196.147 112.683 196.088 113.041 195.955 113.375C195.822 113.708 195.619 114.009 195.359 114.257C195.069 114.536 194.724 114.75 194.345 114.885C193.967 115.019 193.564 115.072 193.164 115.039C192.764 115.006 192.375 114.887 192.023 114.692C191.672 114.497 191.366 114.229 191.126 113.906C190.554 113.044 190.269 112.022 190.311 110.987V110.703C190.27 109.667 190.555 108.645 191.126 107.781C191.382 107.409 191.728 107.108 192.132 106.907C192.535 106.706 192.983 106.611 193.433 106.63C193.801 106.617 194.167 106.684 194.506 106.825C194.846 106.967 195.151 107.18 195.401 107.451C195.658 107.74 195.856 108.077 195.983 108.443C196.109 108.809 196.162 109.197 196.139 109.584V109.622H194.765C194.79 109.158 194.668 108.697 194.415 108.307C194.311 108.149 194.169 108.02 194.003 107.932C193.836 107.844 193.65 107.799 193.461 107.802C193.196 107.793 192.936 107.868 192.716 108.016C192.496 108.164 192.327 108.377 192.234 108.626C191.961 109.283 191.833 109.992 191.856 110.703V110.987C191.828 111.708 191.956 112.426 192.231 113.092C192.327 113.334 192.496 113.541 192.713 113.684C192.931 113.827 193.187 113.9 193.447 113.892Z" fill="#20B6C9"/>
<path d="M200.324 112.092L200.442 112.64H200.488L202.072 106.777H203.736L200.848 116.148C200.682 116.667 200.42 117.15 200.075 117.572C199.902 117.77 199.686 117.926 199.444 118.029C199.202 118.132 198.94 118.178 198.677 118.165C198.541 118.164 198.405 118.15 198.272 118.123C198.128 118.095 197.985 118.063 197.845 118.028L198.016 116.906C198.089 116.919 198.163 116.929 198.237 116.934C198.334 116.934 198.411 116.934 198.467 116.934C198.606 116.936 198.744 116.902 198.866 116.836C198.989 116.77 199.092 116.673 199.166 116.555C199.353 116.28 199.492 115.977 199.579 115.657L199.855 114.818L197.31 106.749H198.967L200.324 112.092Z" fill="#20B6C9"/>
<path d="M210.913 114.874H209.396V111.934C209.187 112.001 208.973 112.05 208.756 112.082C208.544 112.114 208.33 112.13 208.116 112.131C207.32 112.184 206.535 111.917 205.935 111.391C205.427 110.897 205.172 110.119 205.172 109.058V106.763H206.69V109.058C206.647 109.576 206.77 110.094 207.039 110.538C207.175 110.69 207.343 110.808 207.532 110.883C207.721 110.958 207.924 110.988 208.127 110.97C208.341 110.968 208.555 110.95 208.766 110.913C208.983 110.874 209.197 110.82 209.406 110.752V106.777H210.937L210.913 114.874Z" fill="#20B6C9"/>
<path d="M217.296 114.874C217.23 114.629 217.178 114.411 217.139 114.218C217.104 114.029 217.081 113.838 217.069 113.646C216.864 114.036 216.575 114.375 216.223 114.639C215.878 114.899 215.456 115.038 215.024 115.032C214.717 115.052 214.409 115.005 214.121 114.893C213.834 114.782 213.574 114.609 213.36 114.387C212.955 113.895 212.749 113.269 212.783 112.633C212.767 112.289 212.832 111.947 212.971 111.633C213.111 111.32 213.322 111.043 213.587 110.826C214.232 110.351 215.023 110.118 215.821 110.166H217.062V109.335C217.087 108.923 216.972 108.514 216.734 108.177C216.621 108.038 216.477 107.928 216.313 107.855C216.15 107.783 215.972 107.75 215.793 107.76C215.63 107.75 215.467 107.777 215.316 107.837C215.164 107.898 215.027 107.991 214.916 108.11C214.693 108.365 214.577 108.695 214.591 109.033H213.14V108.987C213.126 108.673 213.185 108.359 213.312 108.07C213.438 107.782 213.63 107.527 213.87 107.325C214.43 106.828 215.159 106.569 215.905 106.602C216.621 106.57 217.32 106.822 217.852 107.303C218.111 107.569 218.312 107.886 218.441 108.234C218.57 108.582 218.624 108.954 218.6 109.324V113.12C218.6 113.422 218.62 113.723 218.66 114.022C218.696 114.31 218.755 114.595 218.835 114.874H217.296ZM215.335 113.864C215.736 113.868 216.125 113.732 216.436 113.478C216.739 113.242 216.958 112.915 217.062 112.545V111.103H215.8C215.596 111.093 215.391 111.127 215.202 111.205C215.012 111.283 214.841 111.401 214.702 111.552C214.438 111.846 214.297 112.23 214.307 112.626C214.29 112.947 214.385 113.265 214.577 113.524C214.666 113.64 214.781 113.733 214.914 113.795C215.047 113.857 215.193 113.885 215.339 113.878L215.335 113.864Z" fill="#20B6C9"/>
<path d="M223.586 113.892C223.764 113.895 223.942 113.858 224.104 113.783C224.266 113.707 224.409 113.596 224.523 113.457C224.789 113.124 224.923 112.704 224.9 112.278H226.267V112.324C226.284 112.682 226.224 113.04 226.091 113.374C225.958 113.707 225.756 114.008 225.498 114.257C225.208 114.536 224.862 114.75 224.483 114.885C224.104 115.019 223.701 115.072 223.301 115.039C222.9 115.006 222.511 114.888 222.159 114.692C221.808 114.497 221.502 114.229 221.261 113.906C220.689 113.044 220.404 112.022 220.446 110.987V110.703C220.405 109.667 220.69 108.645 221.261 107.781C221.517 107.409 221.863 107.108 222.267 106.907C222.67 106.706 223.118 106.611 223.568 106.63C223.936 106.617 224.303 106.684 224.643 106.825C224.983 106.967 225.289 107.18 225.54 107.451C225.796 107.741 225.992 108.078 226.118 108.444C226.244 108.81 226.297 109.197 226.274 109.584V109.622H224.897C224.921 109.158 224.799 108.697 224.547 108.307C224.443 108.149 224.301 108.02 224.134 107.932C223.967 107.843 223.781 107.799 223.593 107.802C223.328 107.793 223.067 107.868 222.847 108.016C222.627 108.164 222.459 108.377 222.366 108.626C222.093 109.283 221.964 109.992 221.988 110.703V110.987C221.961 111.708 222.089 112.425 222.362 113.092C222.459 113.335 222.629 113.543 222.848 113.686C223.067 113.829 223.324 113.901 223.586 113.892Z" fill="#20B6C9"/>
<path d="M233.944 114.874H232.42V111.412H229.672V114.874H228.148V106.777H229.672V110.286H232.42V106.777H233.944V114.874Z" fill="#20B6C9"/>
<path d="M235.846 110.742C235.802 109.688 236.1 108.649 236.695 107.781C236.972 107.422 237.326 107.131 237.732 106.931C238.138 106.731 238.584 106.627 239.036 106.627C239.488 106.627 239.934 106.731 240.34 106.931C240.745 107.131 241.1 107.422 241.376 107.781C241.975 108.648 242.274 109.688 242.23 110.742V110.945C242.276 111.998 241.978 113.036 241.38 113.903C241.102 114.259 240.746 114.548 240.34 114.746C239.935 114.944 239.489 115.047 239.038 115.047C238.586 115.047 238.141 114.944 237.735 114.746C237.329 114.548 236.974 114.259 236.695 113.903C236.098 113.036 235.799 111.998 235.846 110.945V110.742ZM237.367 110.945C237.339 111.675 237.482 112.402 237.783 113.068C237.888 113.313 238.064 113.523 238.287 113.67C238.51 113.817 238.771 113.896 239.038 113.896C239.305 113.896 239.566 113.817 239.789 113.67C240.012 113.523 240.187 113.313 240.293 113.068C240.59 112.407 240.733 111.687 240.709 110.963V110.759C240.734 110.034 240.59 109.314 240.289 108.654C240.185 108.407 240.011 108.195 239.788 108.047C239.565 107.898 239.304 107.819 239.036 107.819C238.768 107.819 238.507 107.898 238.284 108.047C238.061 108.195 237.886 108.407 237.783 108.654C237.485 109.314 237.342 110.035 237.367 110.759V110.945Z" fill="#20B6C9"/>
<path d="M244.177 105.339H242.607V103.936H244.166L244.177 105.339ZM245.753 114.874H244.236V106.777H245.753V114.874ZM247.424 105.325H245.865V103.922H247.424V105.325Z" fill="#20B6C9"/>
<path d="M251.623 110.742C251.578 109.688 251.878 108.648 252.476 107.781C252.752 107.422 253.106 107.131 253.512 106.931C253.917 106.731 254.363 106.627 254.815 106.627C255.267 106.627 255.712 106.731 256.118 106.931C256.523 107.131 256.878 107.422 257.154 107.781C257.753 108.648 258.054 109.687 258.01 110.742V110.945C258.058 111.998 257.758 113.038 257.157 113.903C256.879 114.259 256.524 114.547 256.118 114.746C255.713 114.944 255.268 115.047 254.817 115.047C254.366 115.047 253.92 114.944 253.515 114.746C253.109 114.547 252.754 114.259 252.476 113.903C251.875 113.038 251.576 111.998 251.623 110.945V110.742ZM253.147 110.945C253.119 111.675 253.26 112.402 253.56 113.068C253.665 113.317 253.842 113.528 254.068 113.675C254.294 113.822 254.559 113.898 254.829 113.892C255.095 113.895 255.355 113.817 255.576 113.67C255.798 113.522 255.97 113.311 256.07 113.064C256.369 112.404 256.512 111.684 256.486 110.959V110.756C256.511 110.031 256.367 109.31 256.066 108.651C255.963 108.403 255.788 108.192 255.565 108.043C255.342 107.895 255.081 107.816 254.813 107.816C254.546 107.816 254.284 107.895 254.061 108.043C253.838 108.192 253.664 108.403 253.56 108.651C253.263 109.311 253.122 110.031 253.147 110.756V110.945Z" fill="#20B6C9"/>
<path d="M259.618 110.931C259.565 109.845 259.807 108.764 260.318 107.805C260.604 107.296 261.073 106.914 261.628 106.736C262.184 106.558 262.786 106.598 263.314 106.847C263.614 107.001 263.877 107.221 264.083 107.489V103.195H265.6V107.549C265.805 107.264 266.073 107.031 266.383 106.868C266.707 106.702 267.068 106.619 267.432 106.626C267.842 106.619 268.246 106.725 268.6 106.933C268.954 107.141 269.244 107.443 269.438 107.805C269.951 108.764 270.193 109.845 270.138 110.931V111.089C270.191 112.096 269.948 113.097 269.438 113.966C269.231 114.305 268.937 114.584 268.588 114.773C268.239 114.963 267.846 115.057 267.449 115.046C267.088 115.052 266.729 114.977 266.401 114.825C266.091 114.674 265.821 114.452 265.614 114.176V118.007H264.097V114.215C263.889 114.479 263.623 114.691 263.321 114.836C263.003 114.98 262.658 115.052 262.31 115.046C261.914 115.058 261.521 114.963 261.173 114.773C260.825 114.582 260.533 114.303 260.328 113.962C259.821 113.093 259.578 112.095 259.629 111.089L259.618 110.931ZM261.129 111.089C261.097 111.79 261.228 112.489 261.51 113.131C261.608 113.363 261.774 113.56 261.987 113.696C262.199 113.832 262.447 113.9 262.698 113.892C262.993 113.9 263.283 113.814 263.527 113.646C263.771 113.463 263.965 113.222 264.093 112.945V108.77C263.965 108.493 263.772 108.253 263.53 108.068C263.292 107.891 263.002 107.798 262.705 107.805C262.44 107.806 262.182 107.891 261.968 108.048C261.754 108.205 261.595 108.426 261.513 108.679C261.232 109.398 261.102 110.166 261.129 110.938V111.089ZM268.634 110.931C268.663 110.159 268.526 109.39 268.232 108.675C268.147 108.422 267.985 108.202 267.77 108.045C267.554 107.888 267.296 107.802 267.03 107.798C266.718 107.789 266.412 107.89 266.166 108.082C265.918 108.288 265.727 108.553 265.61 108.854V112.924C265.732 113.204 265.926 113.447 266.173 113.625C266.43 113.799 266.734 113.888 267.044 113.878C267.296 113.883 267.545 113.813 267.758 113.676C267.971 113.539 268.138 113.342 268.239 113.11C268.528 112.472 268.663 111.775 268.634 111.075V110.931Z" fill="#20B6C9"/>
<path d="M277.566 107.938H275.28V114.874H273.756V107.938H271.508V106.777H277.566V107.938Z" fill="#20B6C9"/>
<path d="M283.373 114.874C283.307 114.629 283.258 114.411 283.219 114.218C283.181 114.03 283.157 113.839 283.15 113.646C282.943 114.036 282.653 114.375 282.3 114.639C281.955 114.9 281.533 115.038 281.101 115.032C280.794 115.053 280.486 115.007 280.199 114.895C279.912 114.783 279.653 114.61 279.44 114.387C279.033 113.897 278.825 113.27 278.86 112.633C278.845 112.289 278.91 111.947 279.049 111.634C279.189 111.32 279.399 111.044 279.664 110.826C280.311 110.351 281.102 110.118 281.901 110.166H283.139V109.335C283.164 108.923 283.049 108.515 282.814 108.177C282.7 108.038 282.556 107.928 282.392 107.855C282.228 107.782 282.049 107.75 281.87 107.76C281.707 107.751 281.544 107.777 281.393 107.838C281.241 107.898 281.105 107.991 280.993 108.11C280.77 108.365 280.654 108.695 280.667 109.033H279.22V108.987C279.208 108.672 279.268 108.359 279.395 108.071C279.522 107.782 279.714 107.527 279.954 107.325C280.512 106.828 281.241 106.569 281.985 106.602C282.702 106.571 283.402 106.822 283.936 107.303C284.194 107.569 284.394 107.887 284.522 108.235C284.65 108.583 284.704 108.954 284.681 109.324V113.12C284.681 113.422 284.701 113.723 284.74 114.022C284.776 114.31 284.832 114.594 284.908 114.874H283.373ZM281.416 113.864C281.815 113.868 282.204 113.731 282.513 113.478C282.816 113.242 283.035 112.915 283.139 112.545V111.103H281.88C281.675 111.092 281.47 111.127 281.28 111.204C281.09 111.282 280.919 111.401 280.779 111.552C280.517 111.847 280.375 112.23 280.384 112.626C280.369 112.947 280.464 113.264 280.653 113.524C280.742 113.639 280.858 113.732 280.99 113.793C281.122 113.855 281.267 113.884 281.412 113.878L281.416 113.864Z" fill="#20B6C9"/>
<path d="M292.655 106.777V114.874H291.131V107.956H289.061V110.293C289.061 111.885 288.868 113.055 288.481 113.801C288.294 114.159 288.007 114.455 287.655 114.65C287.302 114.846 286.9 114.934 286.499 114.902H286.177V113.689H286.408C286.62 113.691 286.826 113.619 286.991 113.485C287.155 113.351 287.268 113.164 287.31 112.955C287.504 112.089 287.583 111.201 287.544 110.314V106.805L292.655 106.777Z" fill="#20B6C9"/>
<path d="M296.354 109.784H297.892C298.643 109.74 299.382 109.992 299.951 110.485C300.199 110.719 300.394 111.003 300.524 111.318C300.653 111.633 300.714 111.972 300.703 112.313C300.714 112.66 300.651 113.004 300.52 113.325C300.389 113.645 300.191 113.934 299.941 114.173C299.373 114.669 298.633 114.921 297.881 114.874H294.819V106.777H296.343L296.354 109.784ZM296.354 110.952V113.734H297.892C298.072 113.748 298.253 113.72 298.421 113.652C298.589 113.585 298.739 113.48 298.86 113.345C299.081 113.061 299.194 112.708 299.178 112.348C299.189 111.993 299.077 111.644 298.86 111.363C298.743 111.222 298.594 111.111 298.426 111.04C298.257 110.968 298.074 110.938 297.892 110.952H296.354Z" fill="#20B6C9"/>
<path d="M306.6 113.029H306.642L308.719 106.777H310.624V114.874H309.103V109.545H309.058L307.142 114.874H306.114L304.185 109.479H304.143V114.874H302.625V106.777H304.538L306.6 113.029Z" fill="#20B6C9"/>
<path d="M312.676 110.742C312.632 109.688 312.93 108.649 313.526 107.781C313.802 107.422 314.157 107.131 314.562 106.931C314.968 106.731 315.414 106.627 315.866 106.627C316.318 106.627 316.764 106.731 317.17 106.931C317.576 107.131 317.931 107.422 318.207 107.781C318.805 108.648 319.105 109.688 319.06 110.742V110.945C319.108 111.998 318.81 113.037 318.21 113.903C317.932 114.259 317.576 114.548 317.171 114.746C316.765 114.944 316.319 115.047 315.868 115.047C315.417 115.047 314.971 114.944 314.565 114.746C314.16 114.548 313.804 114.259 313.526 113.903C312.928 113.036 312.63 111.998 312.676 110.945V110.742ZM314.201 110.945C314.172 111.675 314.314 112.402 314.613 113.068C314.717 113.316 314.894 113.528 315.119 113.675C315.345 113.822 315.61 113.898 315.879 113.892C316.145 113.895 316.406 113.818 316.628 113.67C316.85 113.522 317.022 113.311 317.123 113.064C317.421 112.404 317.563 111.683 317.539 110.959V110.756C317.564 110.031 317.42 109.31 317.12 108.651C317.016 108.403 316.841 108.192 316.618 108.043C316.396 107.895 316.134 107.816 315.866 107.816C315.599 107.816 315.337 107.895 315.114 108.043C314.891 108.192 314.717 108.403 314.613 108.651C314.316 109.311 314.175 110.031 314.201 110.756V110.945Z" fill="#20B6C9"/>
<path d="M326.646 106.777V114.874H325.111V107.956H323.042V110.293C323.042 111.885 322.848 113.055 322.461 113.801C322.275 114.159 321.987 114.454 321.635 114.65C321.283 114.846 320.881 114.933 320.479 114.902H320.158V113.689H320.388C320.6 113.691 320.806 113.619 320.971 113.485C321.136 113.351 321.249 113.164 321.29 112.955C321.485 112.089 321.564 111.201 321.525 110.314V106.805L326.646 106.777Z" fill="#20B6C9"/>
<path d="M328.429 110.742C328.384 109.688 328.684 108.648 329.282 107.781C329.558 107.422 329.912 107.131 330.318 106.931C330.723 106.731 331.169 106.627 331.621 106.627C332.073 106.627 332.518 106.731 332.924 106.931C333.329 107.131 333.684 107.422 333.96 107.781C334.559 108.648 334.86 109.687 334.816 110.742V110.945C334.864 111.998 334.564 113.038 333.963 113.903C333.685 114.259 333.33 114.547 332.924 114.746C332.519 114.944 332.074 115.047 331.623 115.047C331.171 115.047 330.726 114.944 330.321 114.746C329.915 114.547 329.56 114.259 329.282 113.903C328.681 113.038 328.381 111.998 328.429 110.945V110.742ZM329.953 110.945C329.925 111.675 330.066 112.402 330.366 113.068C330.47 113.316 330.647 113.528 330.872 113.675C331.098 113.822 331.362 113.898 331.631 113.892C331.898 113.895 332.159 113.818 332.38 113.67C332.602 113.522 332.775 113.311 332.876 113.064C333.174 112.404 333.316 111.683 333.292 110.959V110.756C333.317 110.031 333.173 109.31 332.872 108.651C332.768 108.403 332.594 108.192 332.371 108.043C332.148 107.895 331.887 107.816 331.619 107.816C331.351 107.816 331.09 107.895 330.867 108.043C330.644 108.192 330.47 108.403 330.366 108.651C330.069 109.311 329.928 110.031 329.953 110.756V110.945Z" fill="#20B6C9"/>
<path d="M341.287 107.956H338.232V114.874H336.707V106.777H341.287V107.956Z" fill="#20B6C9"/>
<path d="M344.381 104.648H342.86V103.195H344.381V104.648ZM344.381 114.888H342.86V106.777H344.381V114.888Z" fill="#20B6C9"/>
<path d="M346.734 105.339H345.171V103.936H346.734V105.339ZM348.314 114.888H346.786V106.777H348.3L348.314 114.888ZM349.989 105.339H348.429V103.936H349.989V105.339Z" fill="#20B6C9"/>
</g>
<defs>
<clipPath id="clip0_103_4594">
<rect width="350" height="120" fill="white"/>
</clipPath>
</defs>
</svg>
